<svg width="30" height="30" viewBox="0 0 30 30" fill="none" xmlns="http://www.w3.org/2000/svg">
<rect x="3" y="3" width="24" height="24" rx="12" fill="#5E44DD" stroke="#5E44DD" stroke-width="2"/>
<mask id="path-2-inside-1_36_192" fill="white">
<path d="M20.2059 10.1049L12.9825 17.463L10.3458 14.7492C10.2085 14.6373 9.98876 14.6373 9.8789 14.7492L9.0824 15.5605C8.97253 15.6724 8.97253 15.8963 9.0824 16.0361L12.7628 19.7572C12.9001 19.897 13.0924 19.897 13.2297 19.7572L21.4693 11.3639C21.5792 11.252 21.5792 11.0282 21.4693 10.8883L20.6728 10.1049C20.563 9.96503 20.3432 9.96503 20.2059 10.1049Z"/>
</mask>
<path d="M20.2059 10.1049L21.6331 11.506L20.2059 10.1049ZM12.9825 17.463L11.548 18.8567L12.9751 20.3255L14.4097 18.8641L12.9825 17.463ZM10.3458 14.7492L11.7803 13.3555L11.6993 13.2722L11.6092 13.1988L10.3458 14.7492ZM9.8789 14.7492L11.3061 16.1503L9.8789 14.7492ZM9.0824 15.5605L7.65518 14.1594H7.65518L9.0824 15.5605ZM9.0824 16.0361L7.50949 17.2714L7.58007 17.3613L7.66044 17.4426L9.0824 16.0361ZM12.7628 19.7572L14.19 18.3561L14.1847 18.3507L12.7628 19.7572ZM13.2297 19.7572L14.6569 21.1582L13.2297 19.7572ZM21.4693 11.3639L20.0421 9.96281L21.4693 11.3639ZM21.4693 10.8883L23.0422 9.65299L22.9631 9.55222L22.8717 9.46237L21.4693 10.8883ZM20.6728 10.1049L19.0999 11.3402L19.1791 11.441L19.2704 11.5308L20.6728 10.1049ZM18.7787 8.70382L11.5553 16.0619L14.4097 18.8641L21.6331 11.506L18.7787 8.70382ZM14.4169 16.0693L11.7803 13.3555L8.91136 16.1429L11.548 18.8567L14.4169 16.0693ZM11.6092 13.1988C11.1459 12.8212 10.5969 12.6652 10.1021 12.6652C9.62042 12.6652 8.97117 12.8189 8.45168 13.3481L11.3061 16.1503C10.8965 16.5675 10.412 16.6652 10.1021 16.6652C9.77887 16.6652 9.40842 16.5653 9.08237 16.2996L11.6092 13.1988ZM8.45168 13.3481L7.65518 14.1594L10.5096 16.9616L11.3061 16.1503L8.45168 13.3481ZM7.65518 14.1594C7.14063 14.6836 7 15.3252 7 15.7878C7 16.2662 7.14455 16.8068 7.50949 17.2714L10.6553 14.8008C10.9104 15.1256 11 15.4844 11 15.7878C11 16.0756 10.9143 16.5494 10.5096 16.9616L7.65518 14.1594ZM7.66044 17.4426L11.3408 21.1636L14.1847 18.3507L10.5044 14.6297L7.66044 17.4426ZM11.3356 21.1582C11.7397 21.5699 12.3216 21.8621 12.9962 21.8621C13.6708 21.8621 14.2528 21.5699 14.6569 21.1582L11.8025 18.3561C12.0692 18.0843 12.4864 17.8621 12.9962 17.8621C13.506 17.8621 13.9232 18.0843 14.19 18.3561L11.3356 21.1582ZM14.6569 21.1582L22.8965 12.765L20.0421 9.96281L11.8025 18.3561L14.6569 21.1582ZM22.8965 12.765C23.4111 12.2409 23.5517 11.5992 23.5517 11.1366C23.5517 10.6583 23.4072 10.1177 23.0422 9.65299L19.8964 12.1236C19.6413 11.7988 19.5517 11.44 19.5517 11.1366C19.5517 10.8488 19.6374 10.375 20.0421 9.96281L22.8965 12.765ZM22.8717 9.46237L22.0752 8.679L19.2704 11.5308L20.0669 12.3142L22.8717 9.46237ZM22.2457 8.86962C21.2563 7.60972 19.6014 7.8658 18.7787 8.70382L21.6331 11.506C21.0851 12.0643 19.8697 12.3203 19.0999 11.3402L22.2457 8.86962Z" fill="white" mask="url(#path-2-inside-1_36_192)"/>
</svg>
