<svg width="20" height="20" viewBox="0 0 20 20" fill="none" xmlns="http://www.w3.org/2000/svg">
<rect x="0.5" y="0.5" width="19" height="19" rx="3.5" stroke="#404040"/>
<path d="M10.2598 15.1641C7.46387 15.1641 5.68652 13.1953 5.68652 10.0645V10.0576C5.68652 6.92676 7.46387 4.97168 10.2598 4.97168C12.4336 4.97168 14.0674 6.31152 14.375 8.25977L14.3887 8.32129H12.8711L12.8301 8.18457C12.502 7.0293 11.5859 6.3252 10.2598 6.3252C8.42773 6.3252 7.25195 7.77441 7.25195 10.0576V10.0645C7.25195 12.3477 8.43457 13.8105 10.2598 13.8105C11.5723 13.8105 12.4814 13.127 12.8506 11.876L12.8711 11.8145H14.3887L14.3818 11.8828C14.0742 13.8447 12.4404 15.1641 10.2598 15.1641Z" fill="#404040"/>
</svg>
