<svg width="20" height="21" viewBox="0 0 20 21" fill="none" xmlns="http://www.w3.org/2000/svg">
<rect x="0.5" y="0.860352" width="19" height="19" rx="3.5" stroke="#404040"/>
<path d="M10.2598 15.5244C7.46387 15.5244 5.68652 13.5557 5.68652 10.4248V10.418C5.68652 7.28711 7.46387 5.33203 10.2598 5.33203C12.4336 5.33203 14.0674 6.67188 14.375 8.62012L14.3887 8.68164H12.8711L12.8301 8.54492C12.502 7.38965 11.5859 6.68555 10.2598 6.68555C8.42773 6.68555 7.25195 8.13477 7.25195 10.418V10.4248C7.25195 12.708 8.43457 14.1709 10.2598 14.1709C11.5723 14.1709 12.4814 13.4873 12.8506 12.2363L12.8711 12.1748H14.3887L14.3818 12.2432C14.0742 14.2051 12.4404 15.5244 10.2598 15.5244Z" fill="#404040"/>
</svg>
