<svg width="311" height="33" viewBox="0 0 311 33" fill="none" xmlns="http://www.w3.org/2000/svg">
<path d="M223.848 0.474125L223.85 0.474723C223.708 0.480323 223.564 0.48953 223.418 0.502016C223.193 0.520779 222.967 0.54002 222.742 0.55914C221.113 0.68608 219.447 0.774107 217.768 0.823186C215.838 0.876558 213.907 0.929004 211.977 0.983085C209.933 1.04008 207.889 1.09656 205.844 1.15118C203.811 1.20692 201.775 1.25793 199.751 1.32863C197.319 1.42082 194.892 1.5295 192.55 1.75393C190.293 1.98676 188.084 2.27812 185.767 2.43903C182.872 2.67099 179.944 2.86489 176.95 2.94607C171.529 3.14386 166.12 3.36637 160.659 3.49223C149.228 3.80529 137.799 4.12937 126.484 4.65092C121.812 4.85692 117.152 5.08256 112.486 5.29907C111.937 5.28906 111.389 5.27615 110.837 5.25489C109.815 5.20661 109.028 5.30186 108.459 5.48396C108.127 5.49799 107.796 5.51557 107.464 5.5296C103.919 5.68218 98.2756 5.88893 94.6772 6.02488C92.8407 6.09385 91.0056 6.16398 89.1698 6.23426C81.1379 6.5497 73.0995 6.86089 65.1666 7.33609C64.7567 7.36759 64.2407 7.39819 63.7166 7.43803C56.2901 7.52189 48.8768 7.63293 41.4832 7.78832C37.9404 7.83594 34.3932 7.86853 30.8433 7.90005C30.1611 7.90609 29.0202 7.64908 28.7994 7.92266C28.776 7.95191 28.7685 7.96113 28.7454 7.98964C29.2386 8.00399 29.4673 8.01051 29.5422 8.03451C29.2765 8.01923 29.0115 8.00829 28.7454 7.98964L28.744 7.98968C26.3426 10.9588 26.1189 10.8545 29.0228 11.1251C29.2366 11.137 29.4496 11.145 29.6633 11.1559C26.9157 11.3774 24.1608 11.5902 21.3924 11.7855C16.9383 12.0944 12.4254 12.3192 7.87065 12.4688C3.95404 12.5971 2.61628 12.1164 6.58643 15.6253C6.59577 15.6548 6.60574 15.6797 6.61485 15.7098C6.62075 15.7299 6.65991 15.7324 6.70555 15.7299C7.03205 15.9989 7.9951 15.7102 8.63647 15.7036C11.778 15.6508 14.8918 15.5482 17.9915 15.4206C18.1123 15.674 18.4167 16.0582 18.8142 16.5905C17.6011 16.7931 16.5205 17.095 15.9729 17.59C12.3755 17.6381 8.78036 17.69 5.18089 17.7336C-0.185501 18.0093 -0.699483 17.387 2.33006 21.077C2.50174 21.2861 3.27916 21.1544 3.75206 21.1734C3.94236 21.181 4.13233 21.1856 4.32231 21.1919C4.21312 21.2117 4.15014 21.2434 4.18778 21.3022C6.43987 24.817 5.68277 24.4012 10.2765 24.2753C12.2349 24.1806 14.191 24.0833 16.1479 23.9862C16.365 24.1501 16.6737 24.3501 17.0839 24.592C16.9068 25.0789 16.8267 25.4412 16.8472 25.7016C16.4001 25.7177 15.9139 25.7353 15.4854 25.7503C12.0053 25.8841 8.54179 26.0491 5.11056 26.2606C4.5293 26.2963 3.9398 26.3223 3.37498 26.3792C2.97605 26.4197 2.05731 26.3637 2.22837 26.552C3.15914 27.5767 4.79668 28.4879 6.11666 29.4502C6.1348 29.4485 6.15348 29.4477 6.17159 29.4459C6.1735 29.4506 6.17686 29.4554 6.17885 29.4601C6.18226 29.4685 6.17392 29.4751 6.16216 29.4809L6.16218 29.4815C6.18929 29.5015 6.22068 29.5205 6.24754 29.5405C8.1868 29.4048 10.1303 29.2771 12.0779 29.1536C11.6905 30.1483 13.6989 31.463 16.8536 31.2684C22.1189 31.003 27.3687 30.7146 32.6287 30.4413C32.5602 30.5568 32.4927 30.673 32.415 30.7863C33.8841 31.1898 35.2505 31.7254 36.822 31.9967C37.6541 32.1403 38.4937 31.9912 39.3255 31.9794C40.3872 31.9644 41.4452 31.9388 42.5032 31.9159C45.1021 31.8597 47.6955 31.7926 50.2897 31.7275C50.9159 31.9217 51.7473 32.0199 52.7803 31.9566C56.6734 31.7609 60.5644 31.5515 64.4561 31.3459C65.8307 31.3076 67.2058 31.2703 68.5804 31.2317C68.4921 31.3134 68.4045 31.3954 68.3108 31.4756C69.5453 31.8873 70.6101 32.4334 72.0134 32.7106C72.7564 32.8574 73.6578 32.706 74.4807 32.6946C75.531 32.6799 76.5822 32.6546 77.6328 32.632C81.4036 32.551 85.1746 32.454 88.9456 32.3589C98.0515 32.113 107.157 31.8486 116.263 31.599C125.6 31.3284 134.935 30.9695 144.267 30.5762C145.848 30.5035 147.428 30.4255 149.009 30.348C158.878 30.4118 169.131 30.3004 179.442 30.0173C202.747 29.3724 225.397 27.8773 243.867 25.7647C245.619 25.6406 247.369 25.5041 249.118 25.3664C251.762 25.1642 254.398 24.9434 257.052 24.7941C258.92 24.6936 260.792 24.6386 262.662 24.5849C264.254 24.5366 265.847 24.5013 267.439 24.4586C270.533 24.372 270.626 24.1851 269.641 22.5085C271.168 22.4222 272.661 22.3361 274.189 22.2467C275.571 22.212 276.466 22.2002 276.999 22.0778C277.437 22.0486 277.875 22.0185 278.314 21.9933C278.494 21.9834 278.896 22.0608 278.854 21.9793C278.497 21.2745 278.27 20.7615 278.073 20.3256C278.102 20.1373 278.145 19.9168 278.182 19.687C280.075 19.5869 281.969 19.489 283.862 19.3863C290.251 19.0693 292.167 18.955 298.283 18.7177C299.817 18.6581 301.818 19.1115 302.884 18.5631C303.046 18.4797 303.188 18.3907 303.318 18.2989C304.208 18.4904 305.093 18.6823 305.015 18.521C304.755 17.9872 304.651 17.3889 304.404 16.8322C304.592 16.3196 304.698 15.7903 304.921 15.3006C304.991 15.1465 304.196 15.3712 303.351 15.6147C303.211 15.5287 303.059 15.4459 302.884 15.3718C302.086 15.0332 300.861 15.2348 299.655 15.4144C300.319 14.7284 299.949 13.8762 298.65 13.4523C298.634 12.9543 298.437 12.5698 298.104 12.269C298.114 12.1894 298.116 12.1094 298.136 12.0308C298.09 12.0332 298.044 12.0348 297.997 12.0368C298.072 11.831 298.034 11.6576 297.896 11.5112C300.716 11.337 303.528 11.1181 306.342 10.9109C306.791 10.8612 307.249 10.8382 307.707 10.8172C308.056 10.8432 308.396 10.8654 308.513 10.7768C308.798 10.7608 309.083 10.7424 309.364 10.7136C309.71 10.678 310.441 10.7391 310.393 10.5765C309.665 8.08088 310.043 7.53864 308.804 7.50889C308.834 7.46213 308.657 7.48393 308.446 7.51657C308.032 7.52861 307.517 7.56243 306.771 7.60481C305.902 7.67085 305.032 7.73257 304.162 7.79512C304.319 7.16291 303.727 6.50982 302.164 6.21295C302.567 6.17431 302.97 6.13414 303.37 6.08869C303.742 6.04642 304.51 6.11773 304.478 5.94127C303.809 2.31255 304.545 2.71631 299.889 2.98983C298.27 3.09889 296.65 3.20639 295.03 3.31691C294.197 3.37384 294.017 3.3864 293.33 3.43376C293.492 3.06435 293.426 3.00021 292.656 3.01854C292.652 2.98574 292.53 3.01567 292.445 3.02526C292.349 3.02844 292.242 3.03146 292.128 3.0357C291.8 3.04476 291.427 3.05414 291.159 3.06108C290.897 3.06781 290.636 3.07329 290.374 3.07882C288.205 3.12346 286.035 3.15713 283.871 3.14341C281.358 3.12908 278.842 3.16451 276.324 3.18506C275.843 3.19219 275.361 3.20189 274.88 3.21217C276.368 2.21305 275.191 0.609392 271.932 0.737627L271.932 0.738263C271.79 0.743872 271.644 0.753162 271.494 0.76578C271.262 0.784742 271.031 0.804199 270.8 0.823523C269.134 0.951603 267.455 1.04025 265.781 1.08916C263.858 1.14228 261.934 1.19447 260.011 1.24831C257.974 1.30505 255.938 1.36124 253.901 1.41556C251.877 1.47102 249.85 1.52169 247.826 1.59239C245.39 1.68471 242.951 1.79384 240.535 2.02084C238.199 2.25644 235.881 2.55157 233.523 2.71395C232.893 2.76389 232.262 2.81024 231.631 2.85587C230.949 2.86252 230.266 2.86918 229.583 2.87488C229.097 2.88218 228.612 2.89196 228.128 2.90235C229.127 1.92029 227.1 0.346318 223.849 0.474293L223.848 0.474125ZM6.16212 29.4809C6.14772 29.4706 6.13086 29.4606 6.11672 29.4502C5.97918 29.4623 5.84102 29.4735 5.70423 29.4868C5.56808 29.5 6.06642 29.527 6.16212 29.4805L6.16212 29.4809ZM8.10748 24.2517C7.99484 24.2936 7.68541 24.2927 7.48811 24.2885C7.69937 24.2896 7.9043 24.2715 8.10748 24.2517Z" fill="url(#paint0_linear_4_428)"/>
<defs>
<linearGradient id="paint0_linear_4_428" x1="6.11149" y1="16.9187" x2="580.9" y2="-2.05183" gradientUnits="userSpaceOnUse">
<stop stop-color="#5E44DD"/>
<stop offset="1" stop-color="#E2148E"/>
</linearGradient>
</defs>
</svg>
