<svg width="221" height="38" viewBox="0 0 221 38" fill="none" xmlns="http://www.w3.org/2000/svg">
<path d="M14 21C18.9706 21 23 16.9706 23 12C23 7.02944 18.9706 3 14 3C9.02944 3 5 7.02944 5 12C5 16.9706 9.02944 21 14 21Z" stroke="#5E44DD" stroke-width="2" stroke-linecap="round" stroke-linejoin="round"/>
<path d="M15.5 8C15.5 8.82843 14.8284 9.5 14 9.5C13.1716 9.5 12.5 8.82843 12.5 8C12.5 7.17157 13.1716 6.5 14 6.5C14.8284 6.5 15.5 7.17157 15.5 8Z" fill="#5E44DD"/>
<path d="M14 12V16" stroke="#5E44DD" stroke-width="2" stroke-linecap="round" stroke-linejoin="round"/>
<path d="M158.861 24.5336L158.862 24.5338C158.762 24.535 158.66 24.5377 158.556 24.5417C158.395 24.5478 158.235 24.5541 158.075 24.5603C156.916 24.6004 155.733 24.6235 154.541 24.6298C153.171 24.6358 151.8 24.6413 150.43 24.6476C148.978 24.6541 147.528 24.6604 146.075 24.6658C144.632 24.6719 143.187 24.6759 141.75 24.6885C140.023 24.7066 138.299 24.7319 136.633 24.8076C135.027 24.8876 133.454 24.993 131.807 25.0417C129.749 25.1157 127.668 25.1731 125.542 25.1817C121.693 25.2189 117.851 25.2668 113.975 25.2729C105.859 25.3068 97.7456 25.3455 89.7084 25.4698C86.3896 25.5171 83.0793 25.5729 79.7649 25.6248C79.3762 25.6157 78.9873 25.6053 78.5964 25.5914C77.8727 25.5617 77.312 25.5956 76.9048 25.6687C76.6687 25.6718 76.4341 25.6764 76.1979 25.6795C73.6802 25.7138 69.6727 25.7529 67.1172 25.7797C65.8131 25.7931 64.5099 25.8071 63.2062 25.8211C57.5021 25.8858 51.7936 25.9487 46.1564 26.0828C45.8649 26.0927 45.4983 26.1013 45.1257 26.1138C39.856 26.0846 34.595 26.0672 29.3471 26.0689C26.833 26.0583 24.3161 26.0412 21.7973 26.0235C21.3133 26.0202 20.5094 25.9 20.347 26.0153C20.3298 26.0276 20.3243 26.0315 20.3073 26.0435C20.6569 26.054 20.8189 26.0588 20.8716 26.0698C20.6834 26.0609 20.4957 26.0539 20.3073 26.0435L20.3063 26.0436C18.5405 27.2948 18.3839 27.2482 20.4381 27.3896C20.5895 27.3965 20.7405 27.4018 20.8918 27.4084C18.9382 27.4792 16.9795 27.5462 15.0117 27.6056C11.8457 27.699 8.63967 27.7557 5.40564 27.7799C2.6247 27.8005 1.68588 27.5828 4.4283 29.1213C4.43431 29.1339 4.44086 29.1447 4.44669 29.1577C4.45045 29.1663 4.47818 29.1678 4.5106 29.1671C4.73655 29.2852 5.42575 29.17 5.88085 29.1728C8.11037 29.1777 10.3213 29.161 12.5228 29.1335C12.6031 29.2431 12.811 29.4105 13.0818 29.6421C12.217 29.7182 11.4441 29.8381 11.0453 30.0454C8.49245 30.0345 5.94115 30.0252 3.38695 30.0123C-0.425488 30.0834 -0.776994 29.8123 1.29441 31.42C1.41179 31.5111 1.96603 31.4615 2.30108 31.4738C2.43591 31.4787 2.57056 31.4824 2.7052 31.4867C2.62732 31.4943 2.58199 31.5073 2.60745 31.5328C4.13105 33.0587 3.60275 32.8739 6.86396 32.8602C8.25516 32.8368 9.6447 32.8122 11.0349 32.7878C11.1855 32.8599 11.4002 32.9483 11.6861 33.0556C11.5502 33.2627 11.4858 33.4172 11.4949 33.529C11.1774 33.532 10.8321 33.5353 10.5278 33.5379C8.05647 33.5647 5.59614 33.6051 3.15775 33.6656C2.74469 33.6758 2.32598 33.6818 1.92413 33.7012C1.6403 33.7151 0.989762 33.683 1.10715 33.7652C1.74584 34.2125 2.88827 34.6173 3.80435 35.0412C3.81726 35.0407 3.83053 35.0405 3.84341 35.0398C3.84467 35.0419 3.84695 35.044 3.84826 35.046C3.8505 35.0496 3.84445 35.0524 3.83598 35.0548L3.83599 35.0551C3.8548 35.0639 3.87666 35.0723 3.89529 35.0811C5.27376 35.0399 6.65507 35.0023 8.03916 34.9664C7.7435 35.3892 9.14045 35.9702 11.3824 35.9145C15.1229 35.8469 18.8529 35.7693 22.5898 35.6983C22.5387 35.7472 22.4884 35.7964 22.4309 35.8443C23.4645 36.0301 24.4226 36.2716 25.5316 36.4016C26.1188 36.4705 26.7175 36.4139 27.3078 36.4162C28.0613 36.419 28.8123 36.4173 29.5632 36.4168C31.4079 36.4155 33.249 36.4095 35.0906 36.4043C35.5306 36.4931 36.1184 36.5424 36.8525 36.5243C39.6181 36.4746 42.3826 36.419 45.1475 36.365C46.1234 36.3607 47.0996 36.3567 48.0755 36.3522C48.0111 36.3865 47.9473 36.4209 47.8791 36.4544C48.7461 36.6416 49.49 36.885 50.4796 37.0161C51.0035 37.0855 51.6461 37.0285 52.2301 37.0308C52.9754 37.0338 53.7216 37.0321 54.4673 37.0316C57.1438 37.03 59.8208 37.0215 62.4978 37.0138C68.9622 36.9883 75.4267 36.9548 81.8912 36.9277C88.5205 36.8936 95.1492 36.8216 101.777 36.7349C102.9 36.7176 104.023 36.6981 105.146 36.6787C112.145 36.7925 119.42 36.8347 126.741 36.8038C143.285 36.7317 159.383 36.2897 172.53 35.5463C173.775 35.5085 175.019 35.4654 176.263 35.4217C178.143 35.3582 180.017 35.2867 181.903 35.246C183.23 35.2193 184.559 35.2122 185.887 35.2056C187.017 35.1988 188.148 35.1976 189.278 35.1933C191.474 35.1833 191.544 35.1041 190.881 34.377C191.966 34.3534 193.027 34.3296 194.112 34.3047C195.093 34.3019 195.729 34.3047 196.109 34.2569C196.421 34.2483 196.732 34.2392 197.044 34.2323C197.172 34.2296 197.455 34.2663 197.428 34.231C197.189 33.9258 197.039 33.704 196.908 33.5155C196.933 33.4351 196.968 33.341 196.999 33.2428C198.344 33.2165 199.689 33.1912 201.034 33.1638C205.573 33.084 206.935 33.0518 211.278 33.0037C212.367 32.9916 213.777 33.2034 214.545 32.9778C214.662 32.9434 214.764 32.9066 214.858 32.8684C215.485 32.9583 216.109 33.0482 216.057 32.9784C215.884 32.7474 215.823 32.4901 215.659 32.2494C215.803 32.0314 215.89 31.8055 216.058 31.5976C216.112 31.5322 215.542 31.6215 214.938 31.7184C214.841 31.6804 214.735 31.6436 214.612 31.6103C214.053 31.4582 213.18 31.5339 212.32 31.6002C212.806 31.3121 212.561 30.9436 211.649 30.7506C211.648 30.5371 211.516 30.3706 211.286 30.2388C211.295 30.2048 211.298 30.1705 211.314 30.137C211.281 30.1376 211.249 30.1379 211.216 30.1384C211.273 30.0508 211.25 29.9762 211.155 29.9122C213.159 29.8623 215.158 29.7932 217.159 29.7291C217.478 29.7117 217.803 29.7059 218.129 29.7008C218.376 29.7151 218.617 29.7276 218.701 29.6906C218.904 29.6863 219.106 29.6809 219.306 29.671C219.553 29.6588 220.07 29.6914 220.039 29.6213C219.575 28.5455 219.855 28.3165 218.977 28.2928C218.999 28.2731 218.873 28.2809 218.722 28.293C218.428 28.2945 218.063 28.3045 217.533 28.3161C216.915 28.3368 216.296 28.3556 215.678 28.3748C215.802 28.1053 215.396 27.8202 214.294 27.6793C214.581 27.6663 214.867 27.6526 215.152 27.6366C215.417 27.6218 215.96 27.6591 215.941 27.5832C215.543 26.0224 216.056 26.2018 212.748 26.2782C211.597 26.3108 210.445 26.3426 209.294 26.3758C208.702 26.3929 208.574 26.3967 208.086 26.4109C208.208 26.2541 208.163 26.226 207.616 26.2271C207.615 26.213 207.527 26.2248 207.467 26.2281C207.399 26.2287 207.322 26.229 207.242 26.2298C207.008 26.2308 206.744 26.2316 206.554 26.2322C206.368 26.2328 206.182 26.2329 205.996 26.2329C204.457 26.233 202.917 26.2285 201.383 26.2036C199.6 26.1754 197.814 26.1685 196.028 26.1553C195.687 26.1541 195.344 26.1541 195.003 26.1542C196.079 25.7391 195.278 25.0416 192.964 25.068L192.964 25.0683C192.863 25.0695 192.759 25.0722 192.652 25.0762C192.488 25.0823 192.323 25.0887 192.159 25.0949C190.975 25.1352 189.782 25.1585 188.593 25.1647C187.228 25.1706 185.862 25.1761 184.497 25.1823C183.051 25.1888 181.606 25.195 180.16 25.2005C178.722 25.2065 177.284 25.2104 175.846 25.223C174.116 25.2412 172.384 25.2665 170.666 25.3426C169.003 25.4231 167.353 25.5293 165.677 25.5782C165.229 25.594 164.78 25.6084 164.332 25.6224C163.848 25.6193 163.363 25.6161 162.879 25.6126C162.534 25.6114 162.19 25.6114 161.846 25.6116C162.575 25.1995 161.171 24.5073 158.862 24.5336L158.861 24.5336ZM3.83596 35.0548C3.82596 35.0502 3.81421 35.0458 3.8044 35.0412C3.70658 35.0452 3.60834 35.0488 3.51103 35.0533C3.41418 35.0578 3.7671 35.0737 3.83596 35.0546L3.83596 35.0548ZM5.32585 32.8311C5.24507 32.8481 5.0256 32.8449 4.88573 32.8414C5.03557 32.8437 5.18131 32.8378 5.32585 32.8311Z" fill="url(#paint0_linear_453_1257)"/>
<path d="M43.522 5.436V18.078H42.136V5.436H43.522ZM39.49 5.744H40.848V17.476H39.49V11.624H37.166C36.424 13.08 35.22 14.34 33.47 15.404L32.644 14.382C35.276 12.814 36.522 10.742 36.732 8.152H33.246V6.99H38.16C38.16 8.222 38.006 9.384 37.628 10.462H39.49V5.744ZM55.5089 5.45V12.646H54.0669V5.45H55.5089ZM48.6909 6.066C50.6229 6.066 52.0369 7.284 52.0369 9.048C52.0369 10.812 50.6229 12.03 48.6909 12.03C46.7449 12.03 45.3309 10.812 45.3309 9.048C45.3309 7.284 46.7449 6.066 48.6909 6.066ZM48.6909 7.256C47.5569 7.256 46.7449 7.97 46.7449 9.048C46.7449 10.168 47.5569 10.84 48.6909 10.84C49.8109 10.84 50.6369 10.14 50.6369 9.048C50.6369 7.97 49.8109 7.256 48.6909 7.256ZM55.5089 13.276V17.924H47.2349V13.276H55.5089ZM48.6489 14.424V16.776H54.0949V14.424H48.6489ZM58.1158 6.696H59.7398V17H58.1158V6.696ZM61.9361 6.696H64.6101C67.8441 6.696 69.5801 8.39 69.5801 11.806C69.5801 15.152 67.7741 17 64.6941 17H61.9361V6.696ZM64.4981 15.67C66.7521 15.67 67.9001 14.438 67.9001 11.806C67.9001 9.216 66.7241 8.012 64.4981 8.012H63.5601V15.67H64.4981ZM80.7312 10.238H72.0512V5.884H73.4932V9.062H80.7312V10.238ZM82.0472 11.75V12.912H70.5672V11.75H82.0472ZM73.4092 16.636H80.8012V17.798H71.9672V14.074H73.4092V16.636ZM96.091 5.422V18.106H94.635V13.304H91.723C91.177 14.55 90.225 15.278 88.993 15.278C87.131 15.278 85.801 13.556 85.801 10.812C85.801 8.096 87.131 6.36 88.993 6.36C90.169 6.36 91.079 7.018 91.653 8.152H94.635V5.422H96.091ZM88.993 13.99C90.113 13.99 90.827 12.842 90.827 10.812C90.827 8.838 90.113 7.662 88.993 7.662C87.915 7.662 87.159 8.852 87.159 10.812C87.159 12.842 87.915 13.99 88.993 13.99ZM94.635 12.114V9.342H92.045C92.143 9.804 92.199 10.266 92.199 10.812C92.199 11.302 92.157 11.708 92.087 12.114H94.635ZM108.4 5.436V18.078H106.958V5.436H108.4ZM104.676 6.766C104.676 10.532 103.164 13.724 98.8239 15.824L98.0539 14.676C101.372 13.066 102.954 10.854 103.192 7.942H98.6839V6.766H104.676ZM120.849 5.408V18.092H119.393V10.742H116.691V9.566H119.393V5.408H120.849ZM114.927 8.544C114.927 10.882 116.117 13.192 118.063 14.088L117.209 15.25C115.753 14.536 114.759 13.15 114.213 11.456C113.653 13.262 112.631 14.718 111.175 15.46L110.265 14.312C112.239 13.346 113.471 10.91 113.471 8.544V6.458H114.927V8.544ZM132.163 12.422C130.707 12.016 129.671 11.19 129.125 10.07C128.551 11.302 127.501 12.212 125.989 12.646L125.317 11.526C127.263 10.966 128.369 9.566 128.369 8.04V7.942H125.709V6.794H128.369V5.38H129.825V6.794H132.471V7.942H129.811V8.04C129.811 9.44 130.917 10.784 132.821 11.302L132.163 12.422ZM137.021 8.432V9.622H135.229V12.716H133.787V5.436H135.229V8.432H137.021ZM132.037 14.48C132.303 15.6 133.801 16.664 135.929 16.958L135.397 18.05C133.479 17.77 131.967 16.902 131.253 15.726C130.525 16.902 129.055 17.742 127.081 18.036L126.535 16.93C128.691 16.636 130.175 15.628 130.441 14.48H127.067V13.332H135.411V14.48H132.037ZM143.449 6.15C146.081 6.15 148.097 7.592 148.097 9.72C148.097 11.89 146.081 13.29 143.449 13.29C140.817 13.29 138.801 11.89 138.801 9.72C138.801 7.592 140.817 6.15 143.449 6.15ZM143.449 7.34C141.587 7.34 140.201 8.264 140.201 9.72C140.201 11.176 141.587 12.1 143.449 12.1C145.311 12.1 146.697 11.176 146.697 9.72C146.697 8.264 145.311 7.34 143.449 7.34ZM149.189 15.292V16.482H137.737V15.292H149.189ZM160.532 11.918H159.076V5.436H160.532V11.918ZM157.102 11.638C155.646 11.148 154.582 10.196 154.008 8.95C153.434 10.308 152.356 11.358 150.83 11.876L150.116 10.728C152.118 10.056 153.252 8.432 153.252 6.724V5.772H154.722V6.724C154.722 8.348 155.856 9.902 157.802 10.504L157.102 11.638ZM160.91 16.832V17.966H152.272V14.676H159.104V13.64H152.244V12.52H160.532V15.726H153.686V16.832H160.91ZM175.5 11.26C173.358 10.924 171.692 9.86 170.852 8.404C170.012 9.874 168.332 10.924 166.19 11.26L165.63 10.098C168.206 9.72 170.082 8.18 170.082 6.514V5.842H171.608V6.514C171.608 8.166 173.512 9.72 176.06 10.098L175.5 11.26ZM176.55 13.626H171.524V18.092H170.082V13.626H165.126V12.45H176.55V13.626ZM190.552 12.632H189.11V5.45H190.552V12.632ZM183.734 12.1C181.788 12.1 180.374 10.882 180.374 9.118C180.374 7.354 181.788 6.136 183.734 6.136C185.666 6.136 187.08 7.354 187.08 9.118C187.08 10.882 185.666 12.1 183.734 12.1ZM183.734 7.326C182.614 7.326 181.788 8.04 181.788 9.118C181.788 10.21 182.614 10.91 183.734 10.91C184.854 10.91 185.68 10.21 185.68 9.118C185.68 8.04 184.854 7.326 183.734 7.326ZM189.208 13.738C189.208 15.026 190.034 16.328 191.672 16.846L190.958 17.91C189.726 17.476 188.914 16.664 188.48 15.642C188.074 16.65 187.346 17.532 186.17 18.022C184.98 17.56 184.238 16.692 183.846 15.67C183.384 16.678 182.572 17.476 181.396 17.91L180.696 16.846C182.32 16.286 183.146 14.956 183.146 13.738V13.178H184.546V13.738C184.546 14.802 185.022 15.922 186.142 16.636C187.262 15.894 187.794 14.676 187.794 13.738V13.178H189.208V13.738ZM203.015 5.422V18.106H201.559V11.316H199.109C198.955 13.766 197.639 15.278 195.917 15.278C194.055 15.278 192.725 13.556 192.725 10.812C192.725 8.096 194.055 6.36 195.917 6.36C197.611 6.36 198.913 7.83 199.095 10.14H201.559V5.422H203.015ZM195.917 13.99C197.037 13.99 197.751 12.842 197.751 10.812C197.751 8.838 197.037 7.662 195.917 7.662C194.839 7.662 194.097 8.838 194.097 10.812C194.097 12.842 194.839 13.99 195.917 13.99ZM216.346 15.348V16.524H204.894V15.348H207.568V12.058C206.56 11.498 205.958 10.588 205.958 9.468C205.958 7.452 207.904 6.164 210.606 6.164C213.294 6.164 215.254 7.452 215.254 9.468C215.254 10.588 214.652 11.484 213.644 12.058V15.348H216.346ZM210.606 7.298C208.688 7.298 207.358 8.138 207.358 9.468C207.358 10.812 208.688 11.652 210.606 11.652C212.51 11.652 213.84 10.812 213.84 9.468C213.84 8.138 212.51 7.298 210.606 7.298ZM209.01 15.348H212.202V12.59C211.712 12.716 211.166 12.772 210.606 12.772C210.032 12.772 209.5 12.716 209.01 12.604V15.348ZM218.827 17.182H217.175V15.446H218.827V17.182Z" fill="#5E44DD"/>
<defs>
<linearGradient id="paint0_linear_453_1257" x1="4.06421" y1="29.6713" x2="412.193" y2="27.4034" gradientUnits="userSpaceOnUse">
<stop stop-color="#5E44DD"/>
<stop offset="1" stop-color="#E2148E"/>
</linearGradient>
</defs>
</svg>
